
<?xml version="1.0" encoding="utf-8"?>
<!-- Generator: Adobe Illustrator 22.0.1, SVG Export Plug-In . SVG Version: 6.00 Build 0)  -->
<svg version="1.1" id="Layer_1" xmlns="http://www.w3.org/2000/svg" xmlns:xlink="http://www.w3.org/1999/xlink" x="0px" y="0px"
	 viewBox="0 0 468 546" style="enable-background:new 0 0 468 546;" xml:space="preserve">
<style type="text/css">
	.st0{clip-path:url(#SVGID_2_);fill:#3F3D56;}
	.st1{clip-path:url(#SVGID_2_);fill:#2F2E41;}
	.st2{clip-path:url(#SVGID_2_);fill:#FFFFFF;}
	.st3{clip-path:url(#SVGID_2_);fill:#6C63FF;}
	.st4{fill:#E2E2E2;}
	.st5{fill:url(#Path_738_1_);}
	.st6{fill:none;stroke:#AD7676;stroke-width:2;stroke-miterlimit:10;}
	.st7{fill:#2F2E41;}
	.st8{opacity:0.2;}
	.st9{fill:#9B9B9B;}
	.st10{fill:#FFFFFF;}
	.st11{opacity:0.121;fill:#9B9B9B;enable-background:new    ;}
	.st12{fill:#3F3D56;}
	.st13{fill:#FA6D26;}
	.st14{fill:#FA6D22;}
	.st15{fill:#232840;}
	#b{
		transform: scale(0.3) translate(650px, 378px);
	}
	 .k {
        fill: url(#e);
      }

      .l {
        fill: url(#d);
      }

      .m {
        fill: url(#g);
      }

      .n {
        fill: url(#f);
      }

      .o {
        fill: url(#i);
      }

      .p {
        fill: url(#h);
      }

      .q {
        fill: url(#j);
      }
	  .r {
        fill: #fff;
      }

      .s {
        fill: #a6afbd;
      }

      .t {
        fill: #e18741;
      }
		#ballon{
	animation: eyes 5s ease-in-out;
    transform-origin: center;
    transform-box: fill-box;
	animation-fill-mode: both;
	position:relative;
	z-index:999;
}
@keyframes eyes{
0%{
	transform: translateY(150%);
	opacity:0;
}
80%{
transform: translateY(-5%);
transition:0.3s ease-in-out;
}
100%{
opacity:1;
transform: translateY(0%);
}
}
#zoo_zoo{
animation: elipse 5s ease-in-out;
    transform-origin: center;
    transform-box: fill-box;
	animation-fill-mode: both;
	position:relative;
	z-index:999;
	
}
@keyframes elipse{
from{
opacity:0;
}
to{
opacity:1;
}

}
#ellipse_bottom{
animation: ellipse 0.5s ease-in-out;
    transform-origin: center;
    transform-box: fill-box;
	animation-fill-mode: both;
	position:relative;
	z-index:999;
	animation-delay: 4s;
}
@keyframes ellipse{
0%{
	transform: translateY(150%);
	opacity:0;
}
100%{
opacity:1;
transform: translateY(0%);
}
}
</style>
<g id="zoo_zoo">
	<defs>
		<rect id="SVGID_1_" x="-82" y="-195" width="658" height="738.1"/>
	</defs>
	<clipPath id="SVGID_2_">
		<use xlink:href="#SVGID_1_"  style="overflow:visible;"/>
	</clipPath>
	<path id="Path_683" class="st0" d="M387.4,511h-1.9l3.6-242.6h1.9L387.4,511z"/>
	<path id="Path_684" class="st0" d="M437.1,511h-1.9l-3.6-242.6h1.9L437.1,511z"/>
	<rect id="Rectangle_1122" x="389.8" y="273.2" class="st0" width="42.5" height="1.8"/>
	<rect id="Rectangle_1123" x="389.8" y="304.7" class="st0" width="42.5" height="1.8"/>
	<rect id="Rectangle_1124" x="389.2" y="336.2" class="st0" width="44.3" height="1.8"/>
	<rect id="Rectangle_1125" x="389.2" y="367.6" class="st0" width="44.9" height="1.8"/>
	<rect id="Rectangle_1126" x="388.5" y="399.1" class="st0" width="46.1" height="1.8"/>
	<rect id="Rectangle_1127" x="388" y="430.6" class="st0" width="46.7" height="1.8"/>
	<rect id="Rectangle_1128" x="387.4" y="462" class="st0" width="47.9" height="1.8"/>
	<rect id="Rectangle_1129" x="386.1" y="493.4" class="st0" width="49.8" height="1.8"/>
	<ellipse id="Ellipse_234" class="st1" cx="409" cy="361.2" rx="25.5" ry="25.4"/>
	<polygon id="Rectangle_1130" class="st1" points="416.3,380.1 424,378.8 426.4,392.3 418.8,393.7 	"/>
	<polygon id="Rectangle_1131" class="st1" points="401.1,382.9 408.7,381.5 411.2,395.1 403.6,396.5 	"/>
	
		<ellipse id="Ellipse_235" transform="matrix(0.7644 -0.6448 0.6448 0.7644 -160.5478 355.5292)" class="st1" cx="406.2" cy="397.4" rx="6.4" ry="2.4"/>
	
		<ellipse id="Ellipse_236" transform="matrix(0.7644 -0.6448 0.6448 0.7644 -155.261 364.5453)" class="st1" cx="421.1" cy="394.7" rx="6.4" ry="2.4"/>
	<ellipse id="Ellipse_237" class="st2" cx="407.3" cy="355" rx="8.7" ry="8.7"/>
	<ellipse id="Ellipse_238" class="st0" cx="403.6" cy="351.8" rx="2.9" ry="2.9"/>
	<path id="Path_685" class="st3" d="M429.1,333.5c0.4-9.4-7.7-17.4-18.2-17.8c-10.4-0.4-19.2,6.8-19.5,16.3
		c-0.4,9.4,6.9,11.6,17.3,12C419.1,344.4,428.7,342.9,429.1,333.5z"/>
	
		<ellipse id="Ellipse_239" transform="matrix(0.2223 -0.975 0.975 0.2223 -47.8157 653.2405)" class="st1" cx="385.6" cy="356.6" rx="4" ry="12.7"/>
	
		<ellipse id="Ellipse_240" transform="matrix(0.2223 -0.975 0.975 0.2223 -17.0247 708.4683)" class="st1" cx="435.6" cy="364.9" rx="4" ry="12.7"/>
	<path id="Path_686" class="st2" d="M416,371.2c0.5,3.1-1.5,6.2-4.7,6.8c-3.2,0.5-6.2-1.5-6.8-4.6l0,0c-0.5-3.1,1.9-4.2,5-4.9
		S415.4,368,416,371.2z"/>
	
		<ellipse id="Ellipse_252" transform="matrix(0.3581 -0.9337 0.9337 0.3581 -346.7144 377.0778)" class="st1" cx="100.9" cy="440.7" rx="14.2" ry="4.5"/>
	<ellipse id="Ellipse_253" class="st1" cx="74.5" cy="462.2" rx="28.6" ry="28.5"/>
	<rect id="Rectangle_1136" x="61.5" y="484.6" class="st1" width="8.7" height="15.5"/>
	<rect id="Rectangle_1137" x="78.8" y="484.6" class="st1" width="8.7" height="15.5"/>
	<ellipse id="Ellipse_254" class="st1" cx="68.7" cy="500.3" rx="7.3" ry="2.7"/>
	<ellipse id="Ellipse_255" class="st1" cx="86.1" cy="499.9" rx="7.3" ry="2.7"/>
	<ellipse id="Ellipse_256" class="st2" cx="75.2" cy="455" rx="9.7" ry="9.7"/>
	<ellipse id="Ellipse_257" class="st0" cx="75.2" cy="455" rx="3.2" ry="3.2"/>
	<path id="Path_692" class="st3" d="M46.7,435.7c-2.3-10.3,5.1-20.7,16.4-23.2c11.4-2.5,22.6,3.8,24.8,14.1
		c2.3,10.3-5.3,14.1-16.7,16.7C60,445.7,49.1,446,46.7,435.7z"/>
	
		<ellipse id="Ellipse_258" transform="matrix(0.4273 -0.9041 0.9041 0.4273 -381.7748 295.3168)" class="st1" cx="42.2" cy="449" rx="4.4" ry="14.2"/>
	<path id="Path_693" class="st2" d="M60.4,472.5c0,2.8,7.2,8.3,15.2,8.3s15.5-7.9,15.5-10.7s-7.5,0.5-15.5,0.5
		C67.6,470.6,60.4,469.7,60.4,472.5z"/>
</g>

<g id="ballon">
	
		<linearGradient id="Path_738_1_" gradientUnits="userSpaceOnUse" x1="2298.8928" y1="868.5406" x2="2298.8928" y2="869.224" gradientTransform="matrix(376.407 0 0 -386.576 -865086.9375 336041.375)">
		<stop  offset="0" style="stop-color:#808080;stop-opacity:0.251"/>
		<stop  offset="0.54" style="stop-color:#808080;stop-opacity:0.122"/>
		<stop  offset="1" style="stop-color:#808080;stop-opacity:0.102"/>
	</linearGradient>
	<path id="Path_738" class="st5" d="M361.4,152.3c0,73-61.1,132.1-126.2,132.1c-65,0-131.8-59.1-131.8-132.1S170.2,20.2,235.2,20.2
		C300.3,20.2,361.4,79.3,361.4,152.3z"/>
	<line id="Line_149" class="st6" x1="259.3" y1="340.8" x2="270.8" y2="286.6"/>
	<line id="Line_150" class="st6" x1="205" y1="348.2" x2="194.7" y2="286.6"/>
	<rect id="Rectangle_1144" x="215.9" y="282.6" class="st7" width="27.9" height="9.7"/>
	<g id="Group_269" transform="translate(1414.745 329.405)" class="st8">
		<path id="Path_757" class="st9" d="M-1179.6-303.5c-1.5,0-2.9,0.1-4.5,0.1c60.4,2.6,115.9,57.9,115.9,125.8
			s-55.5,123.2-115.9,125.8c1.5,0.1,2.9,0.1,4.5,0.1c62,0,120.3-56.4,120.3-126S-1117.6-303.5-1179.6-303.5z"/>
	</g>
	<g id="Group_270" transform="translate(1240.528 330.047)" class="st8">
		<path id="Path_758" class="st10" d="M-1123.9-177.8c0-68.5,61.8-124.3,122.9-125.8c-0.9,0-1.8-0.1-2.7-0.1
			c-62,0-125.6,56.4-125.6,125.9s63.7,125.9,125.7,125.9c0.9,0,1.8,0,2.7-0.1C-1062.1-53.5-1123.9-109.2-1123.9-177.8z"/>
	</g>
	<path id="Path_759" class="st11" d="M191,35.6c0,0-95.3,108.6,0,233.5l31.5-0.1c0,0-86.8-103.2-4-241.3L203,31.3L191,35.6z"/>
	<path id="Path_760" class="st11" d="M273.9,33.9c0,0,95.3,110.2,0,235.2l-31.5-0.1c0,0,86.8-104.1,4-242.1l15.5,3.1L273.9,33.9z"/>
	
		<ellipse id="Ellipse_292" transform="matrix(0.3581 -0.9337 0.9337 0.3581 -160.9444 462.4888)" class="st7" cx="255.9" cy="348.3" rx="12.5" ry="4"/>
	<ellipse id="Ellipse_293" class="st7" cx="237.9" cy="372.5" rx="25.2" ry="25.1"/>
	<path id="Path_771" class="st7" d="M226.4,394.9h7.6l-1.5,16.3l-6.2-2.7L226.4,394.9L226.4,394.9z"/>
	<path id="Path_772" class="st7" d="M243.1,393.6h7.6l-1.5,16.3l-6.2-2.7L243.1,393.6L243.1,393.6z"/>
	<ellipse id="Ellipse_296" class="st10" cx="238.5" cy="366.1" rx="8.6" ry="8.5"/>
	<ellipse id="Ellipse_297" class="st12" cx="238.5" cy="366.1" rx="2.9" ry="2.9"/>
	<path id="Path_773" class="st13" d="M213.5,349.2c-2.1-9.1,4.5-18.2,14.5-20.4c10-2.2,19.8,3.3,21.9,12.4s-4.6,12.4-14.7,14.6
		C225.2,358,215.5,358.3,213.5,349.2z"/>
	
		<ellipse id="Ellipse_298" transform="matrix(0.8034 -0.5954 0.5954 0.8034 -169.9656 195.6518)" class="st7" cx="211.3" cy="355.2" rx="4" ry="12.5"/>
	<path id="Path_774" class="st10" d="M250.1,384.7c0-2.1-5.2-6-11-6s-11.2,5.7-11.2,7.7s5.4-0.4,11.2-0.4S250.1,386.8,250.1,384.7z"
		/>
	<!-- <g id="Group_273" transform="translate(1365.775 473.42)">
		<path id="Path_734" class="st14" d="M-1124.7-308.9h-28.9c-0.3,0.1-0.7,0.1-1,0.1h-0.1c-5.3-0.1-9.6-4.6-9.5-9.9
			c0.1-5.3,4.6-9.6,9.9-9.4c0.8,0,1.5,0.1,2.2,0.3c0.8,0.2,1.4,0.5,2.1,0.8c1.1,0.5,2.1,1.4,2.8,2.3c0.1,0.1,0.1,0.2,0.3,0.3h0.1
			l0.1-0.1l0,0c-0.8-1.8-1.1-3.6-1.1-5.5v-0.4c0.2-8.1,6.9-14.4,15-14.1c2.6,0.1,5.1,0.8,7.4,2.3c0.2,0.1,0.5,0.3,0.7,0.5
			c0.1,0.1,0.1,0.1,0.2,0.1c0.1,0.1,0.3,0.2,0.5,0.3c0.2,0.1,0.2,0.2,0.3,0.3c0.1,0.1,0.3,0.2,0.3,0.3c0.1,0.1,0.2,0.2,0.3,0.3
			c0.1,0.1,0.2,0.2,0.3,0.3c0.1,0.1,0.3,0.3,0.4,0.5l0.2,0.3c0.1,0.1,0.2,0.2,0.3,0.3c0.1,0.1,0.3,0.3,0.3,0.5s0.1,0.2,0.3,0.3
			c0.2,0.1,0.1,0.2,0.2,0.3c0.1,0.2,0.3,0.4,0.4,0.6l0.1,0.3c0.1,0.1,0.1,0.3,0.3,0.4c0,0.1,0.1,0.1,0.1,0.1c0.4,0.8,0.8,1.7,1,2.6
			l0,0c0.3,1.1,0.5,2.3,0.6,3.4c1.4-0.5,2.9-0.9,4.4-1c-0.2-2.5-1-4.8-2.1-7l-0.1-0.3c-0.1-0.1-0.1-0.3-0.3-0.4
			c-0.3-0.5-0.7-1.1-1-1.6l0,0c-6.2-8.7-18.2-10.6-26.7-4.5c-4.5,3.1-7.3,8.1-7.9,13.5c-0.8-0.1-1.6-0.2-2.4-0.2
			c-7.6-0.1-14,5.9-14.1,13.5c-0.1,7.7,6,13.9,13.6,14.1h36.5c-0.8-0.3-1.5-0.6-2.2-1C-1122.2-306.6-1123.6-307.6-1124.7-308.9z"/>
		<path id="Path_736" class="st15" d="M-1113.2-330.3c-6.9-0.3-12.8,5.1-13.2,12s5,12.8,12,13.1c0.4,0,0.8,0,1.2,0
			c0.6,0,1.2-0.1,1.9-0.1l-0.7-0.8l0,0l-2.9-3.1c-4.7-1-7.7-5.6-6.8-10.3c1-4.7,5.6-7.7,10.3-6.8c4.7,1,7.7,5.6,6.8,10.3
			c-0.3,1.7-1.2,3.2-2.4,4.4l1.9,2.1l0.8,0.8c5-4.9,5.1-12.8,0.3-17.8C-1106.6-329-1109.8-330.3-1113.2-330.3L-1113.2-330.3z"/>
		<path id="Path_737" class="st14" d="M-1102.6-304.6l-1.4-1.4l0,0l-2.9-3.1l0,0l-2.7-2.9h-5.9l5.3,5.7l0,0l4.7,4.9h5.8
			L-1102.6-304.6z"/>
	</g> -->
	<!-- <linearGradient id="d" x1="0" y1="82.41" x2="344.48" y2="82.41" gradientTransform="matrix(1, 0, 0, 1, 0, 0)" gradientUnits="userSpaceOnUse">
      <stop offset=".19" stop-color="#4169e1" />
      <stop offset="1" stop-color="#91b4f9" />
    </linearGradient>
    <linearGradient id="e" x1="0" y1="114.03" x2="344.48" y2="114.03" xlink:href="#d" />
    <linearGradient id="f" x1="131.91" y1="3319.07" x2="149.44" y2="3341.2" gradientTransform="translate(58.54 3465.92) rotate(-1.86) scale(1 -1)" gradientUnits="userSpaceOnUse">
      <stop offset=".36" stop-color="#231f20" stop-opacity="0" />
      <stop offset=".86" stop-color="#223a87" stop-opacity=".86" />
      <stop offset=".95" stop-color="#223f99" />
    </linearGradient>
    <linearGradient id="g" x1="-2872.82" y1="65.42" x2="-2852.12" y2="91.56" gradientTransform="translate(-2752.86 -118.72) rotate(-177.12) scale(1 -1)" xlink:href="#f" />
    <linearGradient id="h" x1="196.04" y1="3319.16" x2="213.74" y2="3341.51" xlink:href="#f" />
    <linearGradient id="i" x1="-2892.54" y1="39.53" x2="-2872.82" y2="64.43" gradientTransform="translate(-2703.36 -171.24) rotate(-175.61) scale(1 -1)" xlink:href="#f" />
    <linearGradient id="j" x1="-3106.41" y1="3456.01" x2="-3086.85" y2="3480.7" gradientTransform="translate(-2877.23 3604.86) rotate(-180)" xlink:href="#f" /> -->
	 <svg version="1.1" id="_x31_" xmlns="http://www.w3.org/2000/svg" xmlns:xlink="http://www.w3.org/1999/xlink" x="0px" y="0px"
	 viewBox="-350 0 1388.2 1123.4" style="enable-background:new 0 0 688.2 273.4;" xml:space="preserve">
<style type="text/css">
	<!-- .st0{fill:#D1794A;}
	.st1{fill:#7258D2;}
	.st2{fill:#798CA9;}
	.st3{fill:#1F3F6F;}
	.st4{fill:#BD89C9;}
	.st5{fill:#59A4B2;} -->
	.st6{fill:#4169E1;}
</style>

<path class="st6" d="M323.8,121.9V49.5h45.8V62h-33.3v17.5h25.1v12.4h-25.1v17.7h33.3v12.3L323.8,121.9L323.8,121.9z"/>
<path class="st6" d="M440.8,49.6V62H419v60h-12.3V62H385V49.6H440.8z"/>
<path class="st6" d="M509.5,49.6V62h-21.8v60h-12.3V62h-21.7V49.6H509.5z"/>
<path class="st6" d="M523.9,121.9V49.5h45.8V62h-33.3v17.5h25.1v12.4h-25.1v17.7h33.3v12.3L523.9,121.9L523.9,121.9z"/>
<path class="st6" d="M623.3,121.9L599,90v31.9h-12.3l-0.1-72.4h26.5c3.5,0,6.8,0.6,10,1.7s5.8,2.8,8.2,4.9c2.3,2,4.1,4.4,5.4,7.1
	s1.9,5.5,1.9,8.4c0,4.5-1.4,8.6-4.3,12.3c-2.5,3.2-5.6,5.4-9.2,6.8c-1.3,0.5-2.8,0.9-4.6,1.3c-1.7,0.4-3,0.6-3.8,0.6l22,29.3
	L623.3,121.9L623.3,121.9z M599,62v19.5h10.8c4.3,0,7.8-0.6,10.3-1.8c1.6-0.7,3-1.7,4.2-3.2s1.8-3.1,1.8-4.8c0-2.4-1-4.6-3.1-6.4
	c-2.4-2.2-5.7-3.3-9.9-3.3L599,62L599,62z"/>
<path class="st6" d="M327.9,204.8c-4,0-7.7-0.8-11.3-2.2c-3.5-1.5-6.7-3.6-9.4-6.4c-2.8-2.8-4.9-6.1-6.3-9.6s-2.2-7.3-2.2-11.2v-45
	h12.7v45c0,2.3,0.4,4.5,1.2,6.6c0.8,2.1,2,3.9,3.6,5.4c3.3,3.3,7.2,4.9,11.7,4.9c2.2,0,4.3-0.4,6.3-1.3s3.8-2.1,5.3-3.6
	c1.6-1.6,2.8-3.4,3.6-5.4s1.2-4.2,1.2-6.6v-45h12.7v45c0,3.9-0.7,7.6-2.2,11.2s-3.5,6.8-6.2,9.6c-2.8,2.8-5.9,4.9-9.5,6.4
	C335.5,204,331.8,204.8,327.9,204.8z"/>
<path class="st6" d="M376.9,194l-4.7,10.1h-13.9l34.2-73.8l32.5,73.8h-13.8l-4.5-10.1H376.9z M392.2,160.9l-9.4,20.4h18.4
	L392.2,160.9z"/>
<path class="st6" d="M430.3,204.1v-73.8H443v61.3h34v12.6L430.3,204.1L430.3,204.1z"/>
<path class="st6" d="M486.5,204.1v-73.8h12.7v73.8H486.5z"/>
<path class="st6" d="M562.5,130.2v12.7h-22.2v61.2h-12.6v-61.2h-22.1v-12.7L562.5,130.2L562.5,130.2z"/>
<path class="st6" d="M603.1,166l22.2-35.8h15.2l-31.1,49.1v24.7h-12.6v-24.7l-30.8-49.1h15L603.1,166z"/>
<path class="st6" d="M200.3,190.5h-73.9H94.2h-1.9c-1.3,0.2-2.6,0.3-3.9,0.4h-0.2c-19.6-0.4-35.4-16.4-35.4-36.2
	c0-20,16.2-36.2,36.2-36.2c3.1,0,6.1,0.4,9,1.1c2.8,0.7,5.4,1.7,7.8,3c4,2.1,7.6,5,10.6,8.5c0.3,0.4,0.6,0.7,0.9,1.1
	c0.1,0,0.2-0.1,0.3-0.1c0.2-0.1,0.3-0.1,0.5-0.2c0,0,0,0,0,0h0c-2.6-6.4-4.1-13.3-4.1-20.7c0-0.5,0-1,0-1.5
	c0.8-29.4,24.8-53,54.4-53c10.6,0,20.6,3.1,28.9,8.3c0.9,0.6,1.7,1.1,2.6,1.7c0.2,0.2,0.5,0.3,0.7,0.5c0.6,0.4,1.2,0.9,1.7,1.3
	c0.4,0.3,0.8,0.7,1.2,1c0.4,0.4,0.9,0.8,1.3,1.2c0.4,0.3,0.7,0.7,1.1,1c0.4,0.3,0.7,0.7,1.1,1.1c0.6,0.6,1.1,1.1,1.6,1.7
	c0.3,0.3,0.6,0.6,0.8,0.9c0.3,0.4,0.7,0.8,1,1.2c0.5,0.6,0.9,1.2,1.4,1.8c0.3,0.4,0.6,0.8,0.9,1.2c0.2,0.3,0.5,0.7,0.7,1
	c0.5,0.7,1,1.5,1.4,2.2c0.2,0.3,0.4,0.6,0.6,0.9c0.3,0.5,0.6,1.1,0.9,1.6c0.1,0.2,0.2,0.3,0.3,0.5c1.6,3.1,2.9,6.4,3.9,9.8
	c0,0,0,0,0,0c1.2,4.1,2,8.3,2.2,12.6c5.1-2.1,10.6-3.4,16.3-3.8c-0.9-9.1-3.6-18-7.8-26.1c-0.2-0.3-0.3-0.6-0.5-0.9
	c-0.3-0.6-0.6-1.1-0.9-1.7c-1.2-2.1-2.5-4.1-3.9-6c0,0,0,0,0,0c-12.9-18-33.9-29.7-57.8-29.7c-36.8,0-67,27.9-70.6,63.7
	c-2.9-0.5-5.9-0.8-8.9-0.8c-28.5,0-51.6,23.1-51.6,51.6c0,27.9,22,50.7,49.6,51.7l0.1,0h135.8c-2.8-1.1-5.5-2.4-8.1-3.9
	C209.2,199.4,204.3,195.3,200.3,190.5z"/>
<path class="st6" d="M304.4,87.5c-1.8-2.3-4.1-4.3-6.8-5.9c0.4-0.4,0.7-0.8,0.9-1.2c2.1-3.2,3.2-6.6,3.2-10.3c0-2.7-0.6-5.3-1.7-7.8
	c-1.1-2.5-2.7-4.7-4.8-6.6c-4.5-4-10.1-6-16.9-6h-22.6v56.5c10.3,2.6,19.5,8.2,26.4,15.9h1.2c3.5,0,6.9-0.6,10-1.7
	c3.1-1.1,5.9-2.8,8.2-4.9c2.3-2.1,4-4.4,5.3-7.2s1.9-5.5,1.9-8.4C308.7,95.4,307.3,91.2,304.4,87.5z M268.1,62h10.1
	c3.8,0,6.7,0.9,8.6,2.8c1.6,1.5,2.4,3.2,2.4,5.3c0,1.3-0.4,2.6-1.2,3.7s-2,2.1-3.5,2.9c-0.9,0.4-1.8,0.6-2.7,0.8
	c-0.9,0.2-2.2,0.2-3.9,0.2h-9.8L268.1,62L268.1,62z M293.2,106.2c-2.5,2.3-5.8,3.4-9.9,3.4h-15.2V90H280c4.2,0,7.7,0.6,10.5,1.8
	c1.6,0.7,3,1.7,4.2,3.2c1.2,1.5,1.8,3.1,1.8,4.8C296.4,102.2,295.4,104.3,293.2,106.2z"/>
<path class="st6" d="M243,110.4c-25.9,0-47,21-47,47c0,25.9,21,46.9,47,46.9c2.3,0,4.6-0.2,6.9-0.5l-2.6-2.8h0l-11-11.7
	c-14.8-3.1-25.9-16.2-25.9-31.9c0-18,14.6-32.6,32.6-32.6s32.6,14.6,32.6,32.6c0,9.1-3.7,17.3-9.7,23.2l7,7.6l2.8,3
	c8.8-8.5,14.2-20.5,14.2-33.7C289.9,131.4,268.9,110.4,243,110.4z"/>
<path class="st6" d="M282.7,206.7l-5.2-5.5c0,0,0,0,0,0l-11-11.8c0,0,0,0,0,0l-10.2-11h-21.8l20.1,21.4h0l17.3,18.4h21.6
	L282.7,206.7z"/>
</svg>

	  <g id="a" />
  <!-- <g id="b" >
    <g id="c" >
      <g>
        <g>
          <path class="l" d="M221.73,70.91c.22-2.23,.34-4.5,.34-6.79C222.07,28.71,194.72,0,160.97,0c-18.33,0-34.76,8.48-45.96,21.89-4.84-1.3-9.91-1.99-15.14-1.99-28.21,0-44.14,12.27-51.17,39.54-4.71,.61-9.52,2.29-14.21,4.78v25.28c3.28-3.34,7.06-5.97,11.37-7.9,4.3-1.93,8.96-2.89,13.97-2.89s9.47,.93,13.78,2.79c4.3,1.86,8.05,4.38,11.22,7.56,3.18,3.18,5.7,6.92,7.56,11.22,1.86,4.3,2.79,8.9,2.79,13.78s-.93,9.46-2.79,13.73c-1.86,4.27-4.38,8-7.56,11.18-3.18,3.18-6.92,5.7-11.22,7.56-4.3,1.86-8.9,2.79-13.78,2.79s-9.46-.93-13.73-2.79c-4.27-1.86-8-4.38-11.18-7.56-3.18-3.18-5.7-6.9-7.56-11.18-1.86-4.27-2.79-8.85-2.79-13.73v-43.23C10.75,82.07,0,99.66,0,115.84c0,27.05,20.9,48.98,46.68,48.98H203.13c25.78,0,46.68-21.93,46.68-48.98,0-20.12-11.56-37.39-28.08-44.93Z" />
          <path class="k" d="M41.92,132c2.31,2.31,5.01,4.13,8.09,5.44,3.08,1.32,6.36,1.97,9.83,1.97s6.84-.66,9.92-1.97c3.08-1.32,5.78-3.13,8.09-5.44s4.13-5.01,5.44-8.09c1.32-3.08,1.98-6.36,1.98-9.83s-.66-6.84-1.98-9.92c-1.32-3.08-3.13-5.78-5.44-8.09s-5.01-4.13-8.09-5.44c-3.08-1.32-6.39-1.97-9.92-1.97s-6.73,.66-9.78,1.97c-3.05,1.32-5.73,3.12-8.04,5.4-2.31,2.28-4.14,4.95-5.49,8-1.35,3.05-2.02,6.31-2.02,9.78v.29c0,3.47,.66,6.74,1.98,9.83,1.32,3.08,3.13,5.78,5.44,8.09Z" />
          <path class="s" d="M24.58,114.07c0,4.88,.93,9.46,2.79,13.73,1.86,4.27,4.38,8,7.56,11.18,3.18,3.18,6.9,5.7,11.18,7.56,4.27,1.86,8.85,2.79,13.73,2.79s9.47-.93,13.78-2.79c4.3-1.86,8.05-4.38,11.22-7.56,3.18-3.18,5.7-6.9,7.56-11.18,1.86-4.27,2.79-8.85,2.79-13.73s-.93-9.47-2.79-13.78c-1.86-4.3-4.38-8.04-7.56-11.22-3.18-3.18-6.92-5.7-11.22-7.56-4.3-1.86-8.9-2.79-13.78-2.79s-9.67,.96-13.97,2.89c-4.3,1.93-8.09,4.56-11.37,7.9v-25.28c-3.41,1.81-6.75,4.04-9.92,6.62v43.23Zm9.92-.29c0-3.47,.67-6.73,2.02-9.78,1.35-3.05,3.18-5.72,5.49-8,2.31-2.28,4.99-4.08,8.04-5.4,3.05-1.32,6.31-1.97,9.78-1.97s6.84,.66,9.92,1.97c3.08,1.32,5.78,3.13,8.09,5.44s4.13,5.01,5.44,8.09c1.32,3.08,1.98,6.39,1.98,9.92s-.66,6.74-1.98,9.83c-1.32,3.08-3.13,5.78-5.44,8.09s-5.01,4.13-8.09,5.44c-3.08,1.32-6.39,1.97-9.92,1.97s-6.74-.66-9.83-1.97c-3.08-1.32-5.78-3.13-8.09-5.44-2.31-2.31-4.13-5.01-5.44-8.09-1.32-3.08-1.98-6.36-1.98-9.83v-.29Z" />
        </g>
        <path class="r" d="M160.02,113.98c0,4.88-.93,9.47-2.79,13.78-1.86,4.3-4.38,8.04-7.56,11.22-3.18,3.18-6.92,5.7-11.22,7.56-4.3,1.86-8.9,2.79-13.78,2.79s-9.67-.96-13.97-2.89c-4.3-1.93-8.09-4.56-11.37-7.9v24.03h-9.92v-48.6c0-4.88,.93-9.46,2.79-13.73,1.86-4.27,4.38-8,7.56-11.18,3.18-3.18,6.9-5.7,11.18-7.56,4.27-1.86,8.85-2.79,13.73-2.79s9.47,.93,13.78,2.79c4.3,1.86,8.05,4.38,11.22,7.56,3.18,3.18,5.7,6.9,7.56,11.18,1.86,4.27,2.79,8.85,2.79,13.73Zm-60.7,.29c0,3.47,.67,6.73,2.02,9.78,1.35,3.05,3.18,5.72,5.49,8,2.31,2.28,4.99,4.08,8.04,5.4,3.05,1.32,6.31,1.98,9.78,1.98s6.84-.66,9.92-1.98c3.08-1.32,5.78-3.13,8.09-5.44s4.13-5.01,5.44-8.09c1.32-3.08,1.98-6.39,1.98-9.92s-.66-6.74-1.98-9.83c-1.32-3.08-3.13-5.78-5.44-8.09s-5.01-4.13-8.09-5.44c-3.08-1.32-6.39-1.98-9.92-1.98s-6.74,.66-9.83,1.98c-3.08,1.32-5.78,3.13-8.09,5.44-2.31,2.31-4.13,5.01-5.44,8.09-1.32,3.08-1.98,6.36-1.98,9.83v.29Z" />
        <path class="t" d="M156.99,100.25c1.86-4.27,4.38-8,7.56-11.18,3.18-3.18,6.92-5.7,11.22-7.56,4.3-1.86,8.9-2.79,13.78-2.79,4.88,0,9.46,.93,13.73,2.79,4.27,1.86,8,4.38,11.18,7.56,3.18,3.18,5.7,6.9,7.56,11.18,1.86,4.27,2.79,8.85,2.79,13.73v68.64h-9.92v-44.07c-3.28,3.34-7.07,5.97-11.37,7.9-4.3,1.93-8.96,2.89-13.97,2.89s-9.47-.93-13.78-2.79c-4.3-1.86-8.04-4.38-11.22-7.56-3.18-3.18-5.7-6.92-7.56-11.22-1.86-4.3-2.79-8.9-2.79-13.78,0-4.88,.93-9.46,2.79-13.73Zm57.9,13.73c0-3.47-.66-6.74-1.98-9.83-1.32-3.08-3.13-5.78-5.44-8.09-2.31-2.31-5.01-4.13-8.09-5.44-3.08-1.32-6.36-1.97-9.83-1.97s-6.84,.66-9.92,1.97c-3.08,1.32-5.78,3.13-8.09,5.44-2.31,2.31-4.13,5.01-5.44,8.09-1.32,3.08-1.97,6.36-1.97,9.83s.66,6.84,1.97,9.92c1.32,3.08,3.13,5.78,5.44,8.09s5.01,4.13,8.09,5.44c3.08,1.32,6.39,1.97,9.92,1.97s6.73-.66,9.78-1.97c3.05-1.32,5.73-3.12,8.04-5.4,2.31-2.28,4.14-4.95,5.49-8,1.35-3.05,2.02-6.31,2.02-9.78v-.29Z" />
        <path class="n" d="M85.27,112.64c2.5,11.7,13.42,26.35,14.05,25.91,2.13,18.59-8.26,24.79-24.03,9.38-11.16-10.91-9.17-6.5-9.17-6.5,0,0,3.29-7.17,11.73-9.43,4.15-1.11,8.38-17.78,7.42-19.35Z" />
        <path class="m" d="M100.66,122.31c-.29,.22-7.11-14.08-8.39-22.83,0,0,2.4-8.79,16.08-16.31,13.68-7.52,8.6,7.24,8.6,7.24,0,0-13.09,5.39-15.65,13.75-.81,2.64-1.86,5.7-1.98,8.27-.25,5.57,1.34,9.89,1.34,9.89Z" />
        <path class="p" d="M149.89,110.54c.99,9.88,11.98,25.62,13.18,25.69,2.13,18.59-8.26,24.79-24.03,9.38-11.16-10.91-9.17-6.5-9.17-6.5,0,0,3.12-10.94,11.73-9.43,7.21,1.26,9.71-17.2,8.29-19.14Z" />
        <path class="o" d="M164.48,118.41c-.1,.97-3.91-11.18-7.37-18.45,.03,.27,2.41-9.52,16.17-17.52,13.49-7.85,8.41,7.46,8.41,7.46,0,0-12.82,5.97-15.61,14.25-2.78,8.28-1.61,14.26-1.61,14.26Z" />
        <path class="q" d="M224.81,113.98c-.18,7.57-4.58,19.64-9.92,25-.86,9.98-.54,42.04,15.56,17.5,8.56-13.05,8.95-6.8,8.95-6.8,0,0-15.38,2.77-14.94-5.95,.36-7.05,1.25-29.25,.35-29.76Z" />
      </g>
    </g>
  </g> -->
  
	<path id="Path_776" class="st7" d="M186.8,274.1H281l-9.8,12.5h-76.4L186.8,274.1z"/>
	
		<ellipse id="Ellipse_294" transform="matrix(0.8803 -0.4744 0.4744 0.8803 -167.5829 158.2978)" class="st7" cx="229.9" cy="411.3" rx="2.4" ry="6.4"/>
	
		<ellipse id="Ellipse_295" transform="matrix(0.8803 -0.4744 0.4744 0.8803 -165.0033 165.9852)" class="st7" cx="246.4" cy="410" rx="2.4" ry="6.4"/>


</g>
<!-- <g id="ellipse_bottom"><ellipse id="Ellipse_226" class="st4" cx="238.5" cy="498.9" rx="49.3" ry="6.2"/></g> -->
</svg>
