<?xml version="1.0" encoding="utf-8"?>
<!-- Generator: Adobe Illustrator 25.4.1, SVG Export Plug-In . SVG Version: 6.00 Build 0)  -->
<svg version="1.1" id="_x31_" xmlns="http://www.w3.org/2000/svg" xmlns:xlink="http://www.w3.org/1999/xlink" x="0px" y="0px"
	 viewBox="0 0 688.2 273.4" style="enable-background:new 0 0 688.2 273.4;" xml:space="preserve">
<style type="text/css">
	.st0{fill:#FFFFFF;}
	.st1{fill:#7258D2;}
	.st2{fill:#798CA9;}
	.st3{fill:#1F3F6F;}
	.st4{fill:#BD89C9;}
	.st5{fill:#59A4B2;}
	.st6{fill:#4169E1;}
	.st7{fill:#D1794A;}
	.st8{fill:#0E3F68;}
	.st9{fill:#1BA7E2;}
</style>
<path class="st3" d="M323.8,121.9V49.5h45.8V62h-33.3v17.5h25.1v12.4h-25.1v17.7h33.3v12.3L323.8,121.9L323.8,121.9z"/>
<path class="st3" d="M440.8,49.6V62H419v60h-12.3V62H385V49.6H440.8z"/>
<path class="st3" d="M509.5,49.6V62h-21.8v60h-12.3V62h-21.7V49.6H509.5z"/>
<path class="st3" d="M523.9,121.9V49.5h45.8V62h-33.3v17.5h25.1v12.4h-25.1v17.7h33.3v12.3L523.9,121.9L523.9,121.9z"/>
<path class="st3" d="M623.3,121.9L599,90v31.9h-12.3l-0.1-72.4h26.5c3.5,0,6.8,0.6,10,1.7s5.8,2.8,8.2,4.9c2.3,2,4.1,4.4,5.4,7.1
	s1.9,5.5,1.9,8.4c0,4.5-1.4,8.6-4.3,12.3c-2.5,3.2-5.6,5.4-9.2,6.8c-1.3,0.5-2.8,0.9-4.6,1.3c-1.7,0.4-3,0.6-3.8,0.6l22,29.3
	L623.3,121.9L623.3,121.9z M599,62v19.5h10.8c4.3,0,7.8-0.6,10.3-1.8c1.6-0.7,3-1.7,4.2-3.2s1.8-3.1,1.8-4.8c0-2.4-1-4.6-3.1-6.4
	c-2.4-2.2-5.7-3.3-9.9-3.3L599,62L599,62z"/>
<path class="st3" d="M327.9,204.8c-4,0-7.7-0.8-11.3-2.2c-3.5-1.5-6.7-3.6-9.4-6.4c-2.8-2.8-4.9-6.1-6.3-9.6s-2.2-7.3-2.2-11.2v-45
	h12.7v45c0,2.3,0.4,4.5,1.2,6.6c0.8,2.1,2,3.9,3.6,5.4c3.3,3.3,7.2,4.9,11.7,4.9c2.2,0,4.3-0.4,6.3-1.3s3.8-2.1,5.3-3.6
	c1.6-1.6,2.8-3.4,3.6-5.4s1.2-4.2,1.2-6.6v-45h12.7v45c0,3.9-0.7,7.6-2.2,11.2s-3.5,6.8-6.2,9.6c-2.8,2.8-5.9,4.9-9.5,6.4
	C335.5,204,331.8,204.8,327.9,204.8z"/>
<path class="st3" d="M376.9,194l-4.7,10.1h-13.9l34.2-73.8l32.5,73.8h-13.8l-4.5-10.1H376.9z M392.2,160.9l-9.4,20.4h18.4
	L392.2,160.9z"/>
<path class="st3" d="M430.3,204.1v-73.8H443v61.3h34v12.6L430.3,204.1L430.3,204.1z"/>
<path class="st3" d="M486.5,204.1v-73.8h12.7v73.8H486.5z"/>
<path class="st3" d="M562.5,130.2v12.7h-22.2v61.2h-12.6v-61.2h-22.1v-12.7L562.5,130.2L562.5,130.2z"/>
<path class="st3" d="M603.1,166l22.2-35.8h15.2l-31.1,49.1v24.7h-12.6v-24.7l-30.8-49.1h15L603.1,166z"/>
<path class="st3" d="M200.3,190.5h-73.9H94.2h-1.9c-1.3,0.2-2.6,0.3-3.9,0.4h-0.2c-19.6-0.4-35.4-16.4-35.4-36.2
	c0-20,16.2-36.2,36.2-36.2c3.1,0,6.1,0.4,9,1.1c2.8,0.7,5.4,1.7,7.8,3c4,2.1,7.6,5,10.6,8.5c0.3,0.4,0.6,0.7,0.9,1.1
	c0.1,0,0.2-0.1,0.3-0.1c0.2-0.1,0.3-0.1,0.5-0.2c0,0,0,0,0,0h0c-2.6-6.4-4.1-13.3-4.1-20.7c0-0.5,0-1,0-1.5
	c0.8-29.4,24.8-53,54.4-53c10.6,0,20.6,3.1,28.9,8.3c0.9,0.6,1.7,1.1,2.6,1.7c0.2,0.2,0.5,0.3,0.7,0.5c0.6,0.4,1.2,0.9,1.7,1.3
	c0.4,0.3,0.8,0.7,1.2,1c0.4,0.4,0.9,0.8,1.3,1.2c0.4,0.3,0.7,0.7,1.1,1c0.4,0.3,0.7,0.7,1.1,1.1c0.6,0.6,1.1,1.1,1.6,1.7
	c0.3,0.3,0.6,0.6,0.8,0.9c0.3,0.4,0.7,0.8,1,1.2c0.5,0.6,0.9,1.2,1.4,1.8c0.3,0.4,0.6,0.8,0.9,1.2c0.2,0.3,0.5,0.7,0.7,1
	c0.5,0.7,1,1.5,1.4,2.2c0.2,0.3,0.4,0.6,0.6,0.9c0.3,0.5,0.6,1.1,0.9,1.6c0.1,0.2,0.2,0.3,0.3,0.5c1.6,3.1,2.9,6.4,3.9,9.8
	c0,0,0,0,0,0c1.2,4.1,2,8.3,2.2,12.6c5.1-2.1,10.6-3.4,16.3-3.8c-0.9-9.1-3.6-18-7.8-26.1c-0.2-0.3-0.3-0.6-0.5-0.9
	c-0.3-0.6-0.6-1.1-0.9-1.7c-1.2-2.1-2.5-4.1-3.9-6c0,0,0,0,0,0c-12.9-18-33.9-29.7-57.8-29.7c-36.8,0-67,27.9-70.6,63.7
	c-2.9-0.5-5.9-0.8-8.9-0.8c-28.5,0-51.6,23.1-51.6,51.6c0,27.9,22,50.7,49.6,51.7l0.1,0h135.8c-2.8-1.1-5.5-2.4-8.1-3.9
	C209.2,199.4,204.3,195.3,200.3,190.5z"/>
<path class="st3" d="M304.4,87.5c-1.8-2.3-4.1-4.3-6.8-5.9c0.4-0.4,0.7-0.8,0.9-1.2c2.1-3.2,3.2-6.6,3.2-10.3c0-2.7-0.6-5.3-1.7-7.8
	c-1.1-2.5-2.7-4.7-4.8-6.6c-4.5-4-10.1-6-16.9-6h-22.6v56.5c10.3,2.6,19.5,8.2,26.4,15.9h1.2c3.5,0,6.9-0.6,10-1.7
	c3.1-1.1,5.9-2.8,8.2-4.9c2.3-2.1,4-4.4,5.3-7.2s1.9-5.5,1.9-8.4C308.7,95.4,307.3,91.2,304.4,87.5z M268.1,62h10.1
	c3.8,0,6.7,0.9,8.6,2.8c1.6,1.5,2.4,3.2,2.4,5.3c0,1.3-0.4,2.6-1.2,3.7s-2,2.1-3.5,2.9c-0.9,0.4-1.8,0.6-2.7,0.8
	c-0.9,0.2-2.2,0.2-3.9,0.2h-9.8L268.1,62L268.1,62z M293.2,106.2c-2.5,2.3-5.8,3.4-9.9,3.4h-15.2V90H280c4.2,0,7.7,0.6,10.5,1.8
	c1.6,0.7,3,1.7,4.2,3.2c1.2,1.5,1.8,3.1,1.8,4.8C296.4,102.2,295.4,104.3,293.2,106.2z"/>
<path class="st3" d="M243,110.4c-25.9,0-47,21-47,47c0,25.9,21,46.9,47,46.9c2.3,0,4.6-0.2,6.9-0.5l-2.6-2.8h0l-11-11.7
	c-14.8-3.1-25.9-16.2-25.9-31.9c0-18,14.6-32.6,32.6-32.6s32.6,14.6,32.6,32.6c0,9.1-3.7,17.3-9.7,23.2l7,7.6l2.8,3
	c8.8-8.5,14.2-20.5,14.2-33.7C289.9,131.4,268.9,110.4,243,110.4z"/>
<path class="st3" d="M282.7,206.7l-5.2-5.5c0,0,0,0,0,0l-11-11.8c0,0,0,0,0,0l-10.2-11h-21.8l20.1,21.4h0l17.3,18.4h21.6
	L282.7,206.7z"/>
</svg>
