<svg width="907" height="132" viewBox="0 0 907 132" fill="none" xmlns="http://www.w3.org/2000/svg">
<mask id="path-1-outside-1_178_1292" maskUnits="userSpaceOnUse" x="0.0270996" y="0.647705" width="201" height="131" fill="black">
<rect fill="white" x="0.0270996" y="0.647705" width="201" height="131"/>
<path fill-rule="evenodd" clip-rule="evenodd" d="M147.325 56.0576C147.325 58.9262 147.036 61.7284 146.486 64.4373C150.364 62.4683 154.753 61.3585 159.4 61.3585C175.178 61.3585 187.968 74.1487 187.968 89.9262C187.968 105.704 175.178 118.494 159.4 118.494C159.313 118.494 159.226 118.494 159.139 118.493C159.128 118.493 159.117 118.494 159.106 118.494H44.8351C44.689 118.494 44.5553 118.441 44.4524 118.352C43.5125 118.446 42.5593 118.494 41.5949 118.494C25.8173 118.494 13.0271 105.703 13.0271 89.9258C13.0271 74.1483 25.8173 61.358 41.5949 61.358C50.8351 61.358 59.0507 65.745 64.2724 72.5498H64.6996C62.5279 67.4801 61.3272 61.9071 61.3272 56.0576C61.3272 32.6352 80.5785 13.6477 104.326 13.6477C128.074 13.6477 147.325 32.6352 147.325 56.0576Z"/>
</mask>
<path d="M146.486 64.4373L133.787 61.8569L128.449 88.1271L152.352 75.9921L146.486 64.4373ZM159.139 118.493L159.255 105.535L158.84 105.531L158.425 105.554L159.139 118.493ZM44.4524 118.352L52.8776 108.507L48.6754 104.911L43.1717 105.457L44.4524 118.352ZM64.2724 72.5498L53.992 80.4387L57.8822 85.5083H64.2724V72.5498ZM64.6996 72.5498V85.5083H84.3478L76.6113 67.4473L64.6996 72.5498ZM159.185 67.0177C159.907 63.4647 160.283 59.7982 160.283 56.0576H134.366C134.366 58.0543 134.166 59.9921 133.787 61.8569L159.185 67.0177ZM159.4 48.3999C152.668 48.3999 146.274 50.0119 140.62 52.8825L152.352 75.9921C154.454 74.9246 156.838 74.317 159.4 74.317V48.3999ZM200.926 89.9262C200.926 66.9919 182.334 48.3999 159.4 48.3999V74.317C168.021 74.317 175.009 81.3055 175.009 89.9262H200.926ZM159.4 131.453C182.334 131.453 200.926 112.861 200.926 89.9262H175.009C175.009 98.547 168.021 105.535 159.4 105.535V131.453ZM159.023 131.451C159.149 131.452 159.274 131.453 159.4 131.453V105.535C159.352 105.535 159.303 105.535 159.255 105.535L159.023 131.451ZM158.425 105.554C158.651 105.542 158.878 105.535 159.106 105.535V131.452C159.357 131.452 159.606 131.445 159.853 131.432L158.425 105.554ZM159.106 105.535H44.8351V131.452H159.106V105.535ZM44.8351 105.535C47.8944 105.535 50.7224 106.662 52.8776 108.507L36.0272 128.198C38.3882 130.219 41.4836 131.452 44.8351 131.452V105.535ZM41.5949 131.452C42.9876 131.452 44.3683 131.383 45.733 131.248L43.1717 105.457C42.6567 105.508 42.1309 105.535 41.5949 105.535V131.452ZM0.0685444 89.9258C0.0685444 112.86 18.6605 131.452 41.5949 131.452V105.535C32.9741 105.535 25.9857 98.5465 25.9857 89.9258H0.0685444ZM41.5949 48.3995C18.6605 48.3995 0.0685444 66.9914 0.0685444 89.9258H25.9857C25.9857 81.3051 32.9741 74.3166 41.5949 74.3166V48.3995ZM74.5529 64.6608C66.9843 54.7977 55.0341 48.3995 41.5949 48.3995V74.3166C46.6361 74.3166 51.117 76.6923 53.992 80.4387L74.5529 64.6608ZM64.2724 85.5083H64.6996V59.5912H64.2724V85.5083ZM48.3687 56.0576C48.3687 63.6965 49.9395 71.0028 52.7878 77.6522L76.6113 67.4473C75.1164 63.9574 74.2858 60.1178 74.2858 56.0576H48.3687ZM104.326 0.68915C73.5907 0.68915 48.3687 25.3105 48.3687 56.0576H74.2858C74.2858 39.96 87.5662 26.6063 104.326 26.6063V0.68915ZM160.283 56.0576C160.283 25.3105 135.061 0.68915 104.326 0.68915V26.6063C121.086 26.6063 134.366 39.96 134.366 56.0576H160.283Z" fill="#1BA7E2" mask="url(#path-1-outside-1_178_1292)"/>
<path d="M271.3 65.0339V7.48768H307.682V17.3696H281.183V31.2761H301.123V41.1581H281.183V55.2394H307.682V65.0339H271.3Z" fill="white"/>
<path d="M361.56 7.48719V17.3692H344.244V65.0334H334.45V17.3692H317.221V7.48719H361.56Z" fill="white"/>
<path d="M415.438 7.48768V17.3696H398.122V65.0339H388.327V17.3696H371.098V7.48768H415.438Z" fill="white"/>
<path d="M424.978 65.0339V7.48768H461.36V17.3696H434.861V31.2761H454.801V41.1581H434.861V55.2394H461.36V65.0339H424.978Z" fill="white"/>
<path d="M480.783 17.3706V32.8517H489.354C492.792 32.8517 495.533 32.3843 497.574 31.4512C498.856 30.9273 499.964 30.0824 500.897 28.9147C501.829 27.7502 502.297 26.4665 502.297 25.0675C502.297 23.1438 501.479 21.4531 499.847 19.9953C497.924 18.2458 495.3 17.3706 491.977 17.3706H480.783ZM500.109 65.0349L480.783 39.6726V65.0349H470.987L470.9 7.48866H491.977C494.776 7.48866 497.412 7.94094 499.891 8.84472C502.368 9.7493 504.541 11.045 506.406 12.7365C508.272 14.3699 509.7 16.249 510.693 18.3769C511.683 20.5056 512.18 22.7361 512.18 25.0675C512.18 28.6238 511.042 31.8891 508.769 34.862C506.786 37.3706 504.336 39.1782 501.422 40.2847C500.373 40.6932 499.162 41.043 497.792 41.3339C496.423 41.6264 495.416 41.7711 494.776 41.7711L512.266 65.0349H500.109Z" fill="white"/>
<path d="M249.429 52.4846C247.446 54.2922 244.822 55.1959 241.559 55.1959H229.489V39.6282H238.935C242.315 39.6282 245.086 40.0956 247.243 41.0272C248.524 41.5526 249.633 42.3976 250.567 43.5637C251.499 44.7305 251.965 46.0119 251.965 47.4117C251.965 49.2781 251.12 50.968 249.429 52.4846ZM229.489 17.3262H237.535C240.567 17.3262 242.84 18.0559 244.357 19.5137C245.639 20.6806 246.281 22.0796 246.281 23.7115C246.281 24.7607 245.96 25.7384 245.319 26.6406C244.676 27.546 243.745 28.3178 242.521 28.9585C241.821 29.251 241.106 29.4537 240.378 29.5706C239.648 29.6882 238.614 29.7454 237.274 29.7454H229.489V17.3262ZM258.35 37.6171C256.892 35.7508 255.084 34.1777 252.927 32.894C253.219 32.6022 253.452 32.2819 253.627 31.9321C255.317 29.4259 256.164 26.6843 256.164 23.7115C256.164 21.555 255.711 19.4843 254.808 17.5019C253.903 15.521 252.635 13.7715 251.003 12.2548C247.446 9.0475 242.957 7.44423 237.535 7.44423H219.607V52.3852C227.833 54.4273 235.11 58.8953 240.627 64.9905H241.559C244.357 64.9905 247.009 64.5398 249.517 63.6352C252.023 62.7314 254.21 61.4342 256.076 59.7427C257.882 58.1116 259.282 56.215 260.274 54.0577C261.265 51.902 261.761 49.6858 261.761 47.4117C261.761 43.8562 260.624 40.59 258.35 37.6171Z" fill="white"/>
<path d="M219.607 64.975V52.3792C226.284 52.8561 237.194 60.5038 240.633 64.975H219.607Z" fill="white"/>
<path d="M628.069 66.4629C625.006 66.4629 622.102 65.886 619.359 64.7298C616.614 63.5751 614.202 61.9277 612.123 59.7892C609.984 57.5949 608.352 55.1096 607.225 52.3361C606.099 49.5627 605.535 46.6741 605.535 43.669V8.9155H615.328V43.669C615.328 45.4608 615.645 47.1514 616.282 48.7394C616.917 50.3288 617.842 51.7298 619.056 52.9424C621.597 55.4857 624.602 56.757 628.069 56.757C629.744 56.757 631.363 56.4241 632.922 55.7599C634.482 55.0957 635.839 54.1557 636.995 52.9424C638.209 51.7298 639.133 50.3288 639.768 48.7394C640.405 47.1514 640.722 45.4608 640.722 43.669V8.9155H650.516V43.669C650.516 46.6741 649.953 49.5627 648.826 52.3361C647.699 55.1096 646.096 57.5949 644.015 59.7892C641.877 61.9277 639.436 63.5751 636.693 64.7298C633.947 65.886 631.072 66.4629 628.069 66.4629Z" fill="#1BA7E2"/>
<path d="M686.466 32.1949L679.12 48.112H693.463L686.466 32.1949ZM674.571 57.9953L670.898 65.8669H660.054L686.729 8.31955L712.091 65.8669H701.334L697.836 57.9953H674.571Z" fill="#1BA7E2"/>
<path d="M721.629 65.8682V8.32077H731.512V56.073H758.011V65.8682H721.629Z" fill="#1BA7E2"/>
<path d="M767.551 8.32004H777.435V65.8674H767.551V8.32004Z" fill="#1BA7E2"/>
<path d="M831.315 8.31955V18.202H813.998V65.8669H804.203V18.202H786.974V8.31955H831.315Z" fill="#1BA7E2"/>
<path d="M869.719 36.2158L887.036 8.31736H898.842L874.617 46.6236V65.8647H864.821V46.6236L840.859 8.31736H852.577L869.719 36.2158Z" fill="#1BA7E2"/>
<path d="M566.997 7.44431C552.07 7.44431 539.971 19.5437 539.971 34.4706C539.971 49.3894 552.07 61.4888 566.997 61.4888C568.344 61.4888 569.673 61.3875 570.968 61.1924L569.461 59.5918H569.47L563.145 52.8351C554.627 51.0573 548.227 43.5046 548.227 34.4706C548.227 24.107 556.634 15.6997 566.997 15.6997C577.361 15.6997 585.76 24.107 585.76 34.4706C585.76 39.686 583.627 44.4105 580.189 47.8061L584.236 52.1497L585.82 53.8515C590.874 48.9405 594.015 42.0739 594.015 34.4706C594.015 19.5437 581.916 7.44431 566.997 7.44431Z" fill="#1BA7E2"/>
<path d="M589.855 62.8502L586.884 59.6968C586.89 59.6905 586.894 59.683 586.899 59.6767L580.553 52.8647C580.552 52.867 580.55 52.8699 580.549 52.8722L574.665 46.55H562.094L573.638 58.8819H573.629L583.568 69.4446H595.999L589.855 62.8502Z" fill="#1BA7E2"/>
<path d="M227.071 101.415C230.485 101.415 232.192 102.957 232.192 106.04C232.192 107.536 231.762 108.674 230.902 109.455C230.055 110.236 228.778 110.626 227.071 110.626H223.934V116.462H221.592V101.415H227.071ZM229.81 105.981C229.81 105.094 229.585 104.452 229.135 104.055C228.685 103.645 227.997 103.44 227.071 103.44H223.934V108.601H227.071C227.997 108.601 228.685 108.39 229.135 107.966C229.585 107.529 229.81 106.868 229.81 105.981ZM243.784 110.328H241.184V116.462H238.841V101.415H244.32C247.735 101.415 249.442 102.904 249.442 105.882C249.442 107.033 249.171 107.966 248.628 108.681C248.099 109.395 247.298 109.878 246.226 110.13L250.137 116.462H247.497L243.784 110.328ZM241.184 108.303H244.32C245.247 108.303 245.935 108.098 246.385 107.688C246.835 107.278 247.06 106.656 247.06 105.822C247.06 104.988 246.835 104.386 246.385 104.016C245.935 103.632 245.247 103.44 244.32 103.44H241.184V108.303ZM263.355 116.8C261.78 116.8 260.443 116.462 259.345 115.787C258.246 115.099 257.419 114.166 256.863 112.988C256.308 111.797 256.03 110.454 256.03 108.959C256.03 107.49 256.308 106.166 256.863 104.988C257.419 103.81 258.246 102.877 259.345 102.189C260.443 101.488 261.78 101.137 263.355 101.137C264.916 101.137 266.247 101.488 267.345 102.189C268.443 102.877 269.271 103.817 269.826 105.008C270.382 106.186 270.66 107.503 270.66 108.959C270.66 110.454 270.382 111.797 269.826 112.988C269.271 114.166 268.443 115.099 267.345 115.787C266.247 116.462 264.916 116.8 263.355 116.8ZM263.355 114.775C264.387 114.775 265.267 114.524 265.995 114.021C266.736 113.505 267.299 112.803 267.682 111.916C268.066 111.03 268.258 110.024 268.258 108.899C268.258 107.827 268.066 106.854 267.682 105.981C267.299 105.107 266.736 104.419 265.995 103.916C265.254 103.413 264.374 103.162 263.355 103.162C262.296 103.162 261.396 103.42 260.655 103.936C259.927 104.439 259.371 105.127 258.988 106.001C258.617 106.874 258.432 107.86 258.432 108.959C258.432 110.07 258.617 111.069 258.988 111.956C259.371 112.83 259.927 113.518 260.655 114.021C261.396 114.524 262.296 114.775 263.355 114.775ZM284.156 116.8C282.502 116.8 281.113 116.476 279.988 115.827C278.876 115.179 278.042 114.266 277.486 113.088C276.931 111.91 276.653 110.533 276.653 108.959C276.653 107.476 276.931 106.146 277.486 104.968C278.042 103.791 278.883 102.858 280.008 102.169C281.132 101.481 282.515 101.137 284.156 101.137C284.858 101.137 285.48 101.197 286.022 101.316C286.578 101.422 287.174 101.607 287.809 101.872V103.976C286.724 103.433 285.526 103.162 284.216 103.162C283.17 103.162 282.251 103.413 281.457 103.916C280.676 104.406 280.074 105.088 279.65 105.961C279.24 106.834 279.035 107.834 279.035 108.959C279.048 110.11 279.253 111.122 279.65 111.996C280.047 112.869 280.63 113.551 281.397 114.041C282.165 114.53 283.084 114.775 284.156 114.775C284.845 114.775 285.52 114.676 286.181 114.477C286.843 114.279 287.544 113.994 288.286 113.624L289 115.589C288.233 115.986 287.425 116.284 286.578 116.482C285.731 116.694 284.924 116.8 284.156 116.8ZM305.08 114.497V116.462H295.651V101.415H304.981V103.38H297.993V107.906H303.988V109.872H297.993V114.497H305.08ZM316.688 116.8C314.73 116.8 312.983 116.436 311.448 115.708V113.544C313.009 114.365 314.756 114.775 316.688 114.775C317.707 114.775 318.455 114.57 318.932 114.16C319.408 113.749 319.646 113.207 319.646 112.532C319.646 111.883 319.428 111.394 318.991 111.063C318.554 110.732 317.893 110.447 317.006 110.209L315.656 109.832C314.889 109.607 314.227 109.349 313.671 109.058C313.115 108.767 312.645 108.343 312.262 107.787C311.891 107.218 311.706 106.484 311.706 105.584C311.706 104.128 312.136 103.023 312.996 102.269C313.856 101.514 315.067 101.137 316.629 101.137C317.568 101.137 318.389 101.223 319.09 101.395C319.805 101.554 320.526 101.812 321.254 102.169V104.274C319.851 103.533 318.31 103.162 316.629 103.162C314.908 103.162 314.048 103.916 314.048 105.425C314.061 106.087 314.26 106.576 314.644 106.894C315.041 107.198 315.683 107.47 316.569 107.708L317.939 108.085C318.76 108.31 319.454 108.575 320.023 108.879C320.606 109.184 321.076 109.627 321.433 110.209C321.803 110.778 321.989 111.526 321.989 112.452C321.975 113.802 321.499 114.868 320.559 115.648C319.62 116.416 318.329 116.8 316.688 116.8ZM333.57 116.8C331.611 116.8 329.864 116.436 328.329 115.708V113.544C329.891 114.365 331.638 114.775 333.57 114.775C334.589 114.775 335.337 114.57 335.813 114.16C336.289 113.749 336.528 113.207 336.528 112.532C336.528 111.883 336.309 111.394 335.873 111.063C335.436 110.732 334.774 110.447 333.887 110.209L332.538 109.832C331.77 109.607 331.108 109.349 330.552 109.058C329.997 108.767 329.527 108.343 329.143 107.787C328.772 107.218 328.587 106.484 328.587 105.584C328.587 104.128 329.017 103.023 329.877 102.269C330.738 101.514 331.949 101.137 333.51 101.137C334.45 101.137 335.27 101.223 335.972 101.395C336.686 101.554 337.408 101.812 338.136 102.169V104.274C336.733 103.533 335.191 103.162 333.51 103.162C331.79 103.162 330.93 103.916 330.93 105.425C330.943 106.087 331.141 106.576 331.525 106.894C331.922 107.198 332.564 107.47 333.451 107.708L334.82 108.085C335.641 108.31 336.336 108.575 336.905 108.879C337.487 109.184 337.957 109.627 338.314 110.209C338.685 110.778 338.87 111.526 338.87 112.452C338.857 113.802 338.38 114.868 337.441 115.648C336.501 116.416 335.211 116.8 333.57 116.8ZM362.893 112.413H356.719L355.27 116.462H352.888L358.446 101.236H361.185L366.764 116.462H364.381L362.893 112.413ZM362.138 110.348L359.816 103.916L357.473 110.348H362.138ZM377.72 116.8C375.761 116.8 374.014 116.436 372.479 115.708V113.544C374.041 114.365 375.788 114.775 377.72 114.775C378.739 114.775 379.487 114.57 379.963 114.16C380.439 113.749 380.678 113.207 380.678 112.532C380.678 111.883 380.459 111.394 380.022 111.063C379.586 110.732 378.924 110.447 378.037 110.209L376.687 109.832C375.92 109.607 375.258 109.349 374.702 109.058C374.146 108.767 373.677 108.343 373.293 107.787C372.922 107.218 372.737 106.484 372.737 105.584C372.737 104.128 373.167 103.023 374.027 102.269C374.888 101.514 376.099 101.137 377.66 101.137C378.6 101.137 379.42 101.223 380.122 101.395C380.836 101.554 381.558 101.812 382.286 102.169V104.274C380.883 103.533 379.341 103.162 377.66 103.162C375.94 103.162 375.08 103.916 375.08 105.425C375.093 106.087 375.291 106.576 375.675 106.894C376.072 107.198 376.714 107.47 377.601 107.708L378.97 108.085C379.791 108.31 380.486 108.575 381.055 108.879C381.637 109.184 382.107 109.627 382.464 110.209C382.835 110.778 383.02 111.526 383.02 112.452C383.007 113.802 382.53 114.868 381.591 115.648C380.651 116.416 379.361 116.8 377.72 116.8ZM394.601 116.8C392.642 116.8 390.896 116.436 389.36 115.708V113.544C390.922 114.365 392.669 114.775 394.601 114.775C395.62 114.775 396.368 114.57 396.844 114.16C397.321 113.749 397.559 113.207 397.559 112.532C397.559 111.883 397.341 111.394 396.904 111.063C396.467 110.732 395.805 110.447 394.919 110.209L393.569 109.832C392.801 109.607 392.14 109.349 391.584 109.058C391.028 108.767 390.558 108.343 390.174 107.787C389.804 107.218 389.618 106.484 389.618 105.584C389.618 104.128 390.049 103.023 390.909 102.269C391.769 101.514 392.98 101.137 394.542 101.137C395.481 101.137 396.302 101.223 397.003 101.395C397.718 101.554 398.439 101.812 399.167 102.169V104.274C397.764 103.533 396.222 103.162 394.542 103.162C392.821 103.162 391.961 103.916 391.961 105.425C391.974 106.087 392.173 106.576 392.556 106.894C392.953 107.198 393.595 107.47 394.482 107.708L395.852 108.085C396.672 108.31 397.367 108.575 397.936 108.879C398.518 109.184 398.988 109.627 399.346 110.209C399.716 110.778 399.901 111.526 399.901 112.452C399.888 113.802 399.412 114.868 398.472 115.648C397.533 116.416 396.242 116.8 394.601 116.8ZM412.912 116.8C410.927 116.8 409.438 116.297 408.445 115.291C407.466 114.285 406.976 112.869 406.976 111.043V101.415H409.319V111.043C409.319 112.274 409.617 113.207 410.212 113.842C410.821 114.464 411.721 114.775 412.912 114.775C414.103 114.775 414.996 114.464 415.592 113.842C416.201 113.207 416.505 112.274 416.505 111.043V101.415H418.847V111.043C418.847 112.883 418.351 114.305 417.359 115.311C416.379 116.304 414.897 116.8 412.912 116.8ZM431.671 110.328H429.07V116.462H426.728V101.415H432.207C435.621 101.415 437.328 102.904 437.328 105.882C437.328 107.033 437.057 107.966 436.515 108.681C435.985 109.395 435.185 109.878 434.113 110.13L438.023 116.462H435.383L431.671 110.328ZM429.07 108.303H432.207C433.133 108.303 433.821 108.098 434.271 107.688C434.721 107.278 434.946 106.656 434.946 105.822C434.946 104.988 434.721 104.386 434.271 104.016C433.821 103.632 433.133 103.44 432.207 103.44H429.07V108.303ZM453.465 112.413H447.291L445.842 116.462H443.459L449.018 101.236H451.757L457.336 116.462H454.953L453.465 112.413ZM452.71 110.348L450.388 103.916L448.045 110.348H452.71ZM475.676 101.415V116.462H473.076L466.168 105.266V116.462H463.825V101.415H466.426L473.334 112.611V101.415H475.676ZM490.146 116.8C488.491 116.8 487.102 116.476 485.977 115.827C484.865 115.179 484.031 114.266 483.475 113.088C482.92 111.91 482.642 110.533 482.642 108.959C482.642 107.476 482.92 106.146 483.475 104.968C484.031 103.791 484.872 102.858 485.997 102.169C487.122 101.481 488.504 101.137 490.146 101.137C490.847 101.137 491.469 101.197 492.012 101.316C492.567 101.422 493.163 101.607 493.798 101.872V103.976C492.713 103.433 491.515 103.162 490.205 103.162C489.16 103.162 488.24 103.413 487.446 103.916C486.665 104.406 486.063 105.088 485.639 105.961C485.229 106.834 485.024 107.834 485.024 108.959C485.037 110.11 485.242 111.122 485.639 111.996C486.036 112.869 486.619 113.551 487.386 114.041C488.154 114.53 489.074 114.775 490.146 114.775C490.834 114.775 491.509 114.676 492.17 114.477C492.832 114.279 493.534 113.994 494.275 113.624L494.989 115.589C494.222 115.986 493.414 116.284 492.567 116.482C491.72 116.694 490.913 116.8 490.146 116.8ZM511.069 114.497V116.462H501.64V101.415H510.97V103.38H503.982V107.906H509.977V109.872H503.982V114.497H511.069ZM518.35 113.167H520.732L519.223 119.46H517.159L518.35 113.167ZM542.686 116.8C541.032 116.8 539.642 116.476 538.517 115.827C537.405 115.179 536.572 114.266 536.016 113.088C535.46 111.91 535.182 110.533 535.182 108.959C535.182 107.476 535.46 106.146 536.016 104.968C536.572 103.791 537.412 102.858 538.537 102.169C539.662 101.481 541.045 101.137 542.686 101.137C543.387 101.137 544.009 101.197 544.552 101.316C545.108 101.422 545.703 101.607 546.338 101.872V103.976C545.253 103.433 544.056 103.162 542.745 103.162C541.7 103.162 540.78 103.413 539.986 103.916C539.205 104.406 538.603 105.088 538.18 105.961C537.769 106.834 537.564 107.834 537.564 108.959C537.577 110.11 537.783 111.122 538.18 111.996C538.577 112.869 539.159 113.551 539.926 114.041C540.694 114.53 541.614 114.775 542.686 114.775C543.374 114.775 544.049 114.676 544.711 114.477C545.372 114.279 546.074 113.994 546.815 113.624L547.53 115.589C546.762 115.986 545.955 116.284 545.108 116.482C544.261 116.694 543.453 116.8 542.686 116.8ZM560.532 116.8C558.957 116.8 557.621 116.462 556.522 115.787C555.424 115.099 554.597 114.166 554.041 112.988C553.485 111.797 553.207 110.454 553.207 108.959C553.207 107.49 553.485 106.166 554.041 104.988C554.597 103.81 555.424 102.877 556.522 102.189C557.621 101.488 558.957 101.137 560.532 101.137C562.094 101.137 563.424 101.488 564.523 102.189C565.621 102.877 566.448 103.817 567.004 105.008C567.56 106.186 567.838 107.503 567.838 108.959C567.838 110.454 567.56 111.797 567.004 112.988C566.448 114.166 565.621 115.099 564.523 115.787C563.424 116.462 562.094 116.8 560.532 116.8ZM560.532 114.775C561.565 114.775 562.445 114.524 563.173 114.021C563.914 113.505 564.476 112.803 564.86 111.916C565.244 111.03 565.436 110.024 565.436 108.899C565.436 107.827 565.244 106.854 564.86 105.981C564.476 105.107 563.914 104.419 563.173 103.916C562.431 103.413 561.551 103.162 560.532 103.162C559.474 103.162 558.574 103.42 557.833 103.936C557.105 104.439 556.549 105.127 556.165 106.001C555.795 106.874 555.609 107.86 555.609 108.959C555.609 110.07 555.795 111.069 556.165 111.956C556.549 112.83 557.105 113.518 557.833 114.021C558.574 114.524 559.474 114.775 560.532 114.775ZM589.255 101.415V116.462H586.912V104.869L582.624 110.924H581.413L577.145 104.889V116.462H574.803V101.415H577.423L582.029 107.966L586.634 101.415H589.255ZM602.669 101.415C606.083 101.415 607.791 102.957 607.791 106.04C607.791 107.536 607.36 108.674 606.5 109.455C605.653 110.236 604.376 110.626 602.669 110.626H599.532V116.462H597.19V101.415H602.669ZM605.408 105.981C605.408 105.094 605.183 104.452 604.733 104.055C604.284 103.645 603.595 103.44 602.669 103.44H599.532V108.601H602.669C603.595 108.601 604.284 108.39 604.733 107.966C605.183 107.529 605.408 106.868 605.408 105.981ZM622.877 114.398V116.462H614.44V101.415H616.782V114.398H622.877ZM629.635 101.415H631.977V116.462H629.635V101.415ZM648.501 112.413H642.327L640.878 116.462H638.495L644.054 101.236H646.793L652.372 116.462H649.989L648.501 112.413ZM647.746 110.348L645.424 103.916L643.081 110.348H647.746ZM670.712 101.415V116.462H668.112L661.204 105.266V116.462H658.861V101.415H661.462L668.37 112.611V101.415H670.712ZM685.182 116.8C683.527 116.8 682.138 116.476 681.013 115.827C679.901 115.179 679.067 114.266 678.511 113.088C677.956 111.91 677.678 110.533 677.678 108.959C677.678 107.476 677.956 106.146 678.511 104.968C679.067 103.791 679.908 102.858 681.033 102.169C682.157 101.481 683.54 101.137 685.182 101.137C685.883 101.137 686.505 101.197 687.048 101.316C687.603 101.422 688.199 101.607 688.834 101.872V103.976C687.749 103.433 686.551 103.162 685.241 103.162C684.196 103.162 683.276 103.413 682.482 103.916C681.701 104.406 681.099 105.088 680.675 105.961C680.265 106.834 680.06 107.834 680.06 108.959C680.073 110.11 680.278 111.122 680.675 111.996C681.072 112.869 681.655 113.551 682.422 114.041C683.19 114.53 684.11 114.775 685.182 114.775C685.87 114.775 686.545 114.676 687.206 114.477C687.868 114.279 688.569 113.994 689.311 113.624L690.025 115.589C689.258 115.986 688.45 116.284 687.603 116.482C686.756 116.694 685.949 116.8 685.182 116.8ZM706.105 114.497V116.462H696.676V101.415H706.006V103.38H699.018V107.906H705.013V109.872H699.018V114.497H706.105ZM735.157 114.398V116.462H734.205C732.881 116.462 731.538 115.999 730.175 115.073C729.513 115.629 728.798 116.059 728.031 116.363C727.276 116.654 726.489 116.8 725.668 116.8C724.014 116.8 722.744 116.409 721.857 115.629C720.97 114.848 720.527 113.802 720.527 112.492C720.527 111.5 720.785 110.672 721.301 110.011C721.817 109.349 722.545 108.72 723.485 108.125C723.022 107.516 722.664 106.934 722.413 106.378C722.175 105.822 722.055 105.227 722.055 104.591C722.055 103.493 722.413 102.619 723.127 101.971C723.855 101.322 724.788 100.998 725.926 100.998C727.065 100.998 727.984 101.309 728.686 101.931C729.387 102.54 729.738 103.38 729.738 104.452C729.738 105.193 729.487 105.882 728.984 106.517C728.481 107.152 727.819 107.734 726.998 108.264L726.582 108.522C727.058 109.104 727.614 109.733 728.249 110.408C728.884 111.069 729.493 111.658 730.075 112.175C730.552 111.433 730.916 110.586 731.167 109.634C731.432 108.681 731.571 107.662 731.584 106.576H733.927C733.927 107.834 733.728 109.058 733.331 110.249C732.934 111.427 732.385 112.492 731.683 113.445C732.173 113.776 732.616 114.021 733.013 114.179C733.424 114.325 733.827 114.398 734.224 114.398H735.157ZM725.926 102.924C725.41 102.924 725.027 103.076 724.775 103.38C724.524 103.671 724.398 104.075 724.398 104.591C724.398 105.002 724.471 105.392 724.616 105.763C724.775 106.133 725.013 106.537 725.331 106.973L725.887 106.636C726.376 106.332 726.747 105.987 726.998 105.604C727.263 105.207 727.395 104.81 727.395 104.413C727.395 103.963 727.276 103.605 727.038 103.341C726.8 103.063 726.429 102.924 725.926 102.924ZM722.869 112.433C722.869 113.108 723.108 113.67 723.584 114.12C724.06 114.557 724.755 114.775 725.668 114.775C726.754 114.775 727.72 114.451 728.567 113.802C727.587 112.889 726.317 111.526 724.755 109.713C724.08 110.163 723.597 110.586 723.306 110.983C723.015 111.38 722.869 111.863 722.869 112.433ZM760.055 103.48H755.628V116.462H753.285V103.48H748.858V101.415H760.055V103.48ZM771.738 110.328H769.138V116.462H766.795V101.415H772.274C775.689 101.415 777.396 102.904 777.396 105.882C777.396 107.033 777.125 107.966 776.582 108.681C776.053 109.395 775.252 109.878 774.18 110.13L778.091 116.462H775.45L771.738 110.328ZM769.138 108.303H772.274C773.201 108.303 773.889 108.098 774.339 107.688C774.789 107.278 775.014 106.656 775.014 105.822C775.014 104.988 774.789 104.386 774.339 104.016C773.889 103.632 773.201 103.44 772.274 103.44H769.138V108.303ZM793.532 112.413H787.358L785.909 116.462H783.527L789.085 101.236H791.825L797.403 116.462H795.021L793.532 112.413ZM792.778 110.348L790.455 103.916L788.113 110.348H792.778ZM803.892 101.415H806.235V116.462H803.892V101.415ZM826.034 101.415V116.462H823.433L816.525 105.266V116.462H814.183V101.415H816.783L823.691 112.611V101.415H826.034ZM833.972 101.415H836.314V116.462H833.972V101.415ZM856.113 101.415V116.462H853.513L846.605 105.266V116.462H844.262V101.415H846.863L853.771 112.611V101.415H856.113ZM875.764 107.271V115.41C874.97 115.86 874.11 116.204 873.183 116.443C872.257 116.681 871.39 116.8 870.583 116.8C868.955 116.8 867.578 116.476 866.454 115.827C865.342 115.165 864.501 114.246 863.932 113.068C863.363 111.89 863.079 110.52 863.079 108.959C863.079 107.476 863.35 106.146 863.893 104.968C864.435 103.791 865.269 102.858 866.394 102.169C867.519 101.481 868.915 101.137 870.583 101.137C871.456 101.137 872.191 101.223 872.786 101.395C873.395 101.554 874.076 101.799 874.831 102.13V104.294C874.156 103.923 873.488 103.645 872.826 103.46C872.177 103.261 871.43 103.162 870.583 103.162C869.524 103.162 868.604 103.407 867.823 103.896C867.056 104.386 866.467 105.068 866.056 105.941C865.659 106.801 865.461 107.787 865.461 108.899C865.461 110.064 865.659 111.089 866.056 111.976C866.454 112.849 867.036 113.538 867.803 114.041C868.584 114.53 869.511 114.775 870.583 114.775C871.496 114.775 872.455 114.563 873.461 114.14V109.336H868.32V107.271H875.764Z" fill="white"/>
</svg>
